# Blender 4.3.2
# www.blender.org
mtllib gate.mtl
o Circle
v -3.000000 0.000000 -0.480000
v -3.240000 0.000000 -0.415692
v -3.415692 0.000000 -0.240000
v -3.480000 0.000000 0.000000
v -3.415692 0.000000 0.240000
v -3.240000 0.000000 0.415692
v -3.000000 0.000000 0.480000
v -2.760000 0.000000 0.415692
v -2.584308 0.000000 0.240000
v -2.520000 0.000000 0.000000
v -2.584308 0.000000 -0.240000
v -2.760000 0.000000 -0.415692
v -3.000000 6.809956 -0.400000
v -3.200000 6.809956 -0.346410
v -3.346410 6.809956 -0.200000
v -3.400000 6.809956 0.000000
v -3.346410 6.809956 0.200000
v -3.200000 6.809956 0.346410
v -3.000000 6.809956 0.400000
v -2.800000 6.809956 0.346410
v -2.653590 6.809956 0.200000
v -2.600000 6.809956 0.000000
v -2.653590 6.809956 -0.200000
v -2.800000 6.809956 -0.346410
v -2.760000 6.932815 -0.415692
v -2.584308 6.932815 -0.240000
v -2.520000 6.932815 -0.000000
v -2.584308 6.932815 0.240000
v -2.760000 6.932815 0.415692
v -3.000000 6.932815 0.480000
v -3.240000 6.932815 0.415692
v -3.415692 6.932815 0.240000
v -3.480000 6.932815 -0.000000
v -3.415692 6.932815 -0.240000
v -3.240000 6.932815 -0.415692
v -3.000000 6.932815 -0.480000
v -3.000000 0.000000 -0.400000
v -3.200000 0.000000 -0.346410
v -3.346410 0.000000 -0.200000
v -3.400000 0.000000 0.000000
v -3.346410 0.000000 0.200000
v -3.200000 0.000000 0.346410
v -3.000000 0.000000 0.400000
v -2.800000 0.000000 0.346410
v -2.653590 0.000000 0.200000
v -2.600000 0.000000 0.000000
v -2.653590 0.000000 -0.200000
v -2.800000 0.000000 -0.346410
v -3.200000 0.466705 -0.346410
v -3.346410 0.466705 -0.200000
v -2.653590 0.466705 0.200000
v -2.600000 0.466705 0.000000
v -3.200000 0.466705 0.346410
v -3.000000 0.466705 0.400000
v -3.400000 0.466705 0.000000
v -2.653590 0.466705 -0.200000
v -2.800000 0.466705 0.346410
v -3.346410 0.466705 0.200000
v -2.800000 0.466705 -0.346410
v -3.000000 0.466705 -0.400000
v -3.415692 0.411799 -0.240000
v -2.520000 0.411799 0.000000
v -3.000000 0.411799 0.480000
v -3.480000 0.411799 0.000000
v -2.584308 0.411799 -0.240000
v -2.760000 0.411799 0.415692
v -3.415692 0.411799 0.240000
v -2.760000 0.411799 -0.415692
v -3.240000 0.411799 -0.415692
v -2.584308 0.411799 0.240000
v -3.240000 0.411799 0.415692
v -3.000000 0.411799 -0.480000
v -2.760000 7.326595 -0.415692
v -2.584308 7.326595 -0.240000
v -2.520000 7.326595 -0.000000
v -2.584308 7.326595 0.240000
v -2.760000 7.326595 0.415692
v -3.000000 7.326595 0.480000
v -3.240000 7.326595 0.415692
v -3.415692 7.326595 0.240000
v -3.480000 7.326595 -0.000000
v -3.415692 7.326595 -0.240000
v -3.240000 7.326595 -0.415692
v -3.000000 7.326595 -0.480000
v -3.988146 7.630972 0.534554
v -3.795352 7.310089 0.534554
v -3.988146 7.630972 -0.534553
v -3.795352 7.310089 -0.534553
v 0.000000 7.630972 -0.534553
v 0.000000 7.630972 0.534554
v 0.000000 7.310089 0.534554
v 0.000000 7.310089 -0.534553
v -4.373735 7.959857 0.534554
v -4.180941 7.630972 0.534554
v -4.373735 7.959857 -0.534553
v -4.180941 7.630972 -0.534553
v 0.000000 7.959857 -0.534553
v 0.000000 7.959857 0.534554
v 0.000000 7.630972 0.534554
v 0.000000 7.630972 -0.534553
v 3.000000 0.000000 -0.480000
v 3.240000 0.000000 -0.415692
v 3.415692 0.000000 -0.240000
v 3.480000 0.000000 0.000000
v 3.415692 0.000000 0.240000
v 3.240000 0.000000 0.415692
v 3.000000 0.000000 0.480000
v 2.760000 0.000000 0.415692
v 2.584308 0.000000 0.240000
v 2.520000 0.000000 0.000000
v 2.584308 0.000000 -0.240000
v 2.760000 0.000000 -0.415692
v 3.000000 6.809956 -0.400000
v 3.200000 6.809956 -0.346410
v 3.346410 6.809956 -0.200000
v 3.400000 6.809956 0.000000
v 3.346410 6.809956 0.200000
v 3.200000 6.809956 0.346410
v 3.000000 6.809956 0.400000
v 2.800000 6.809956 0.346410
v 2.653590 6.809956 0.200000
v 2.600000 6.809956 0.000000
v 2.653590 6.809956 -0.200000
v 2.800000 6.809956 -0.346410
v 2.760000 6.932815 -0.415692
v 2.584308 6.932815 -0.240000
v 2.520000 6.932815 -0.000000
v 2.584308 6.932815 0.240000
v 2.760000 6.932815 0.415692
v 3.000000 6.932815 0.480000
v 3.240000 6.932815 0.415692
v 3.415692 6.932815 0.240000
v 3.480000 6.932815 -0.000000
v 3.415692 6.932815 -0.240000
v 3.240000 6.932815 -0.415692
v 3.000000 6.932815 -0.480000
v 3.000000 0.000000 -0.400000
v 3.200000 0.000000 -0.346410
v 3.346410 0.000000 -0.200000
v 3.400000 0.000000 0.000000
v 3.346410 0.000000 0.200000
v 3.200000 0.000000 0.346410
v 3.000000 0.000000 0.400000
v 2.800000 0.000000 0.346410
v 2.653590 0.000000 0.200000
v 2.600000 0.000000 0.000000
v 2.653590 0.000000 -0.200000
v 2.800000 0.000000 -0.346410
v 3.200000 0.466705 -0.346410
v 3.346410 0.466705 -0.200000
v 2.653590 0.466705 0.200000
v 2.600000 0.466705 0.000000
v 3.200000 0.466705 0.346410
v 3.000000 0.466705 0.400000
v 3.400000 0.466705 0.000000
v 2.653590 0.466705 -0.200000
v 2.800000 0.466705 0.346410
v 3.346410 0.466705 0.200000
v 2.800000 0.466705 -0.346410
v 3.000000 0.466705 -0.400000
v 3.415692 0.411799 -0.240000
v 2.520000 0.411799 0.000000
v 3.000000 0.411799 0.480000
v 3.480000 0.411799 0.000000
v 2.584308 0.411799 -0.240000
v 2.760000 0.411799 0.415692
v 3.415692 0.411799 0.240000
v 2.760000 0.411799 -0.415692
v 3.240000 0.411799 -0.415692
v 2.584308 0.411799 0.240000
v 3.240000 0.411799 0.415692
v 3.000000 0.411799 -0.480000
v 2.760000 7.326595 -0.415692
v 2.584308 7.326595 -0.240000
v 2.520000 7.326595 -0.000000
v 2.584308 7.326595 0.240000
v 2.760000 7.326595 0.415692
v 3.000000 7.326595 0.480000
v 3.240000 7.326595 0.415692
v 3.415692 7.326595 0.240000
v 3.480000 7.326595 -0.000000
v 3.415692 7.326595 -0.240000
v 3.240000 7.326595 -0.415692
v 3.000000 7.326595 -0.480000
v 3.988146 7.630972 0.534554
v 3.795352 7.310089 0.534554
v 3.988146 7.630972 -0.534553
v 3.795352 7.310089 -0.534553
v 4.373735 7.959857 0.534554
v 4.180941 7.630972 0.534554
v 4.373735 7.959857 -0.534553
v 4.180941 7.630972 -0.534553
vn -0.7496 0.5008 -0.4328
vn -0.8266 -0.2983 -0.4772
vn -0.4772 -0.2983 -0.8266
vn -0.4328 0.5008 -0.7496
vn 0.8656 0.5008 -0.0000
vn 0.9545 -0.2983 -0.0000
vn 0.8266 -0.2983 0.4772
vn 0.7496 0.5008 0.4328
vn -0.0000 0.5008 0.8656
vn -0.0000 -0.2983 0.9545
vn -0.4772 -0.2983 0.8266
vn -0.4328 0.5008 0.7496
vn -0.8656 0.5008 -0.0000
vn -0.9545 -0.2983 -0.0000
vn 0.7496 0.5008 -0.4328
vn 0.8266 -0.2983 -0.4772
vn 0.4328 0.5008 0.7496
vn 0.4772 -0.2983 0.8266
vn -0.7496 0.5008 0.4328
vn -0.8266 -0.2983 0.4772
vn 0.4328 0.5008 -0.7496
vn 0.4772 -0.2983 -0.8266
vn -0.0000 -0.2983 -0.9545
vn -0.0000 0.5008 -0.8656
vn -0.0000 0.4368 -0.8995
vn 0.4498 0.4368 -0.7790
vn -0.4498 0.4368 0.7790
vn -0.7790 0.4368 0.4498
vn 0.7790 0.4368 0.4498
vn 0.4498 0.4368 0.7790
vn -0.4498 0.4368 -0.7790
vn 0.7790 0.4368 -0.4498
vn -0.8995 0.4368 -0.0000
vn -0.0000 0.4368 0.8995
vn 0.8995 0.4368 -0.0000
vn -0.7790 0.4368 -0.4498
vn -0.8660 -0.0000 -0.5000
vn -0.5000 -0.0000 -0.8660
vn 1.0000 -0.0000 -0.0000
vn 0.8660 -0.0000 0.5000
vn -0.0000 -0.0000 1.0000
vn -0.5000 -0.0000 0.8660
vn -1.0000 -0.0000 -0.0000
vn 0.8660 -0.0000 -0.5000
vn 0.5000 -0.0000 0.8660
vn -0.8660 -0.0000 0.5000
vn 0.5000 -0.0000 -0.8660
vn -0.0000 -0.0000 -1.0000
vn 0.4811 -0.2726 0.8332
vn 0.8332 -0.2726 0.4811
vn -0.8332 -0.2726 0.4811
vn -0.4811 -0.2726 0.8332
vn 0.4811 -0.2726 -0.8332
vn -0.0000 -0.2726 -0.9621
vn 0.8332 -0.2726 -0.4811
vn -0.4811 -0.2726 -0.8332
vn -0.8332 -0.2726 -0.4811
vn -0.9621 -0.2726 -0.0000
vn 0.9621 -0.2726 -0.0000
vn -0.0000 -0.2726 0.9621
vn -0.8572 -0.5150 -0.0000
vn -0.0000 -1.0000 -0.0000
vn -0.0000 1.0000 -0.0000
vn -0.8627 -0.5057 -0.0000
vn 0.8572 -0.5150 -0.0000
vn 0.8627 -0.5057 -0.0000
vt 0.000000 0.000000
vt 0.000000 1.000000
vt 1.000000 1.000000
vt 1.000000 0.000000
s 1
usemtl Gate
f 50/1/1 15/1/2 14/1/3 49/1/4
f 52/1/5 22/1/6 21/1/7 51/1/8
f 54/1/9 19/1/10 18/1/11 53/1/12
f 55/1/13 16/1/14 15/1/2 50/1/1
f 56/1/15 23/1/16 22/1/6 52/1/5
f 57/1/17 20/1/18 19/1/10 54/1/9
f 58/1/19 17/1/20 16/1/14 55/1/13
f 59/1/21 24/1/22 23/1/16 56/1/15
f 49/1/4 14/1/3 13/1/23 60/1/24
f 51/1/8 21/1/7 20/1/18 57/1/17
f 53/1/12 18/1/11 17/1/20 58/1/19
f 60/1/24 13/1/23 24/1/22 59/1/21
f 72/1/25 60/1/24 59/1/21 68/1/26
f 71/1/27 53/1/12 58/1/19 67/1/28
f 70/1/29 51/1/8 57/1/17 66/1/30
f 69/1/31 49/1/4 60/1/24 72/1/25
f 68/1/26 59/1/21 56/1/15 65/1/32
f 67/1/28 58/1/19 55/1/13 64/1/33
f 66/1/30 57/1/17 54/1/9 63/1/34
f 65/1/32 56/1/15 52/1/5 62/1/35
f 64/1/33 55/1/13 50/1/1 61/1/36
f 63/1/34 54/1/9 53/1/12 71/1/27
f 62/1/35 52/1/5 51/1/8 70/1/29
f 61/1/36 50/1/1 49/1/4 69/1/31
f 3/1/37 61/1/36 69/1/31 2/1/38
f 10/1/39 62/1/35 70/1/29 9/1/40
f 7/1/41 63/1/34 71/1/27 6/1/42
f 4/1/43 64/1/33 61/1/36 3/1/37
f 11/1/44 65/1/32 62/1/35 10/1/39
f 8/1/45 66/1/30 63/1/34 7/1/41
f 5/1/46 67/1/28 64/1/33 4/1/43
f 12/1/47 68/1/26 65/1/32 11/1/44
f 2/1/38 69/1/31 72/1/25 1/1/48
f 9/1/40 70/1/29 66/1/30 8/1/45
f 6/1/42 71/1/27 67/1/28 5/1/46
f 1/1/48 72/1/25 68/1/26 12/1/47
f 29/1/49 28/1/50 76/1/40 77/1/45
f 32/1/51 31/1/52 79/1/42 80/1/46
f 25/1/53 36/1/54 84/1/48 73/1/47
f 26/1/55 25/1/53 73/1/47 74/1/44
f 35/1/56 34/1/57 82/1/37 83/1/38
f 34/1/57 33/1/58 81/1/43 82/1/37
f 33/1/58 32/1/51 80/1/46 81/1/43
f 28/1/50 27/1/59 75/1/39 76/1/40
f 36/1/54 35/1/56 83/1/38 84/1/48
f 27/1/59 26/1/55 74/1/44 75/1/39
f 30/1/60 29/1/49 77/1/45 78/1/41
f 31/1/52 30/1/60 78/1/41 79/1/42
f 19/1/10 20/1/18 29/1/49 30/1/60
f 20/1/18 21/1/7 28/1/50 29/1/49
f 21/1/7 22/1/6 27/1/59 28/1/50
f 22/1/6 23/1/16 26/1/55 27/1/59
f 23/1/16 24/1/22 25/1/53 26/1/55
f 24/1/22 13/1/23 36/1/54 25/1/53
f 13/1/23 14/1/3 35/1/56 36/1/54
f 14/1/3 15/1/2 34/1/57 35/1/56
f 15/1/2 16/1/14 33/1/58 34/1/57
f 16/1/14 17/1/20 32/1/51 33/1/58
f 18/1/11 19/1/10 30/1/60 31/1/52
f 17/1/20 18/1/11 31/1/52 32/1/51
s 0
f 85/1/61 87/2/61 88/3/61 86/4/61
f 90/1/39 91/4/39 92/3/39 89/2/39
f 86/4/62 88/3/62 92/3/62 91/4/62
f 87/2/63 85/1/63 90/1/63 89/2/63
f 88/3/48 87/2/48 89/2/48 92/3/48
f 85/1/41 86/4/41 91/4/41 90/1/41
f 93/1/64 95/2/64 96/3/64 94/4/64
f 98/1/39 99/4/39 100/3/39 97/2/39
f 94/4/62 96/3/62 100/3/62 99/4/62
f 95/2/63 93/1/63 98/1/63 97/2/63
f 96/3/48 95/2/48 97/2/48 100/3/48
f 93/1/41 94/4/41 99/4/41 98/1/41
s 1
f 150/1/15 149/1/21 114/1/22 115/1/16
f 152/1/13 151/1/19 121/1/20 122/1/14
f 154/1/9 153/1/17 118/1/18 119/1/10
f 155/1/5 150/1/15 115/1/16 116/1/6
f 156/1/1 152/1/13 122/1/14 123/1/2
f 157/1/12 154/1/9 119/1/10 120/1/11
f 158/1/8 155/1/5 116/1/6 117/1/7
f 159/1/4 156/1/1 123/1/2 124/1/3
f 149/1/21 160/1/24 113/1/23 114/1/22
f 151/1/19 157/1/12 120/1/11 121/1/20
f 153/1/17 158/1/8 117/1/7 118/1/18
f 160/1/24 159/1/4 124/1/3 113/1/23
f 172/1/25 168/1/31 159/1/4 160/1/24
f 171/1/30 167/1/29 158/1/8 153/1/17
f 170/1/28 166/1/27 157/1/12 151/1/19
f 169/1/26 172/1/25 160/1/24 149/1/21
f 168/1/31 165/1/36 156/1/1 159/1/4
f 167/1/29 164/1/35 155/1/5 158/1/8
f 166/1/27 163/1/34 154/1/9 157/1/12
f 165/1/36 162/1/33 152/1/13 156/1/1
f 164/1/35 161/1/32 150/1/15 155/1/5
f 163/1/34 171/1/30 153/1/17 154/1/9
f 162/1/33 170/1/28 151/1/19 152/1/13
f 161/1/32 169/1/26 149/1/21 150/1/15
f 103/1/44 102/1/47 169/1/26 161/1/32
f 110/1/43 109/1/46 170/1/28 162/1/33
f 107/1/41 106/1/45 171/1/30 163/1/34
f 104/1/39 103/1/44 161/1/32 164/1/35
f 111/1/37 110/1/43 162/1/33 165/1/36
f 108/1/42 107/1/41 163/1/34 166/1/27
f 105/1/40 104/1/39 164/1/35 167/1/29
f 112/1/38 111/1/37 165/1/36 168/1/31
f 102/1/47 101/1/48 172/1/25 169/1/26
f 109/1/46 108/1/42 166/1/27 170/1/28
f 106/1/45 105/1/40 167/1/29 171/1/30
f 101/1/48 112/1/38 168/1/31 172/1/25
f 129/1/52 177/1/42 176/1/46 128/1/51
f 132/1/50 180/1/40 179/1/45 131/1/49
f 125/1/56 173/1/38 184/1/48 136/1/54
f 126/1/57 174/1/37 173/1/38 125/1/56
f 135/1/53 183/1/47 182/1/44 134/1/55
f 134/1/55 182/1/44 181/1/39 133/1/59
f 133/1/59 181/1/39 180/1/40 132/1/50
f 128/1/51 176/1/46 175/1/43 127/1/58
f 136/1/54 184/1/48 183/1/47 135/1/53
f 127/1/58 175/1/43 174/1/37 126/1/57
f 130/1/60 178/1/41 177/1/42 129/1/52
f 131/1/49 179/1/45 178/1/41 130/1/60
f 119/1/10 130/1/60 129/1/52 120/1/11
f 120/1/11 129/1/52 128/1/51 121/1/20
f 121/1/20 128/1/51 127/1/58 122/1/14
f 122/1/14 127/1/58 126/1/57 123/1/2
f 123/1/2 126/1/57 125/1/56 124/1/3
f 124/1/3 125/1/56 136/1/54 113/1/23
f 113/1/23 136/1/54 135/1/53 114/1/22
f 114/1/22 135/1/53 134/1/55 115/1/16
f 115/1/16 134/1/55 133/1/59 116/1/6
f 116/1/6 133/1/59 132/1/50 117/1/7
f 118/1/18 131/1/49 130/1/60 119/1/10
f 117/1/7 132/1/50 131/1/49 118/1/18
s 0
f 185/1/65 186/4/65 188/3/65 187/2/65
f 186/4/62 91/4/62 92/3/62 188/3/62
f 187/2/63 89/2/63 90/1/63 185/1/63
f 188/3/48 92/3/48 89/2/48 187/2/48
f 185/1/41 90/1/41 91/4/41 186/4/41
f 189/1/66 190/4/66 192/3/66 191/2/66
f 190/4/62 99/4/62 100/3/62 192/3/62
f 191/2/63 97/2/63 98/1/63 189/1/63
f 192/3/48 100/3/48 97/2/48 191/2/48
f 189/1/41 98/1/41 99/4/41 190/4/41
l 37 38
l 38 39
l 39 40
l 40 41
l 41 42
l 42 43
l 43 44
l 44 45
l 45 46
l 46 47
l 47 48
l 48 37
l 137 138
l 138 139
l 139 140
l 140 141
l 141 142
l 142 143
l 143 144
l 144 145
l 145 146
l 146 147
l 147 148
l 148 137
