# Blender 4.2.3 LTS
# www.blender.org
mtllib gate.mtl
o Circle
v -1.500000 -1.848804 -0.240000
v -1.620000 -1.848804 -0.207846
v -1.707846 -1.848804 -0.120000
v -1.740000 -1.848804 0.000000
v -1.707846 -1.848804 0.120000
v -1.620000 -1.848804 0.207846
v -1.500000 -1.848804 0.240000
v -1.380000 -1.848804 0.207846
v -1.292153 -1.848804 0.120000
v -1.260000 -1.848804 0.000000
v -1.292153 -1.848804 -0.120000
v -1.380000 -1.848804 -0.207846
v -1.500000 1.556174 -0.200000
v -1.600000 1.556174 -0.173205
v -1.673205 1.556174 -0.100000
v -1.700000 1.556174 -0.000000
v -1.673205 1.556174 0.100000
v -1.600000 1.556174 0.173205
v -1.500000 1.556174 0.200000
v -1.399999 1.556174 0.173205
v -1.326795 1.556174 0.100000
v -1.299999 1.556174 -0.000000
v -1.326795 1.556174 -0.100000
v -1.399999 1.556174 -0.173205
v -1.380000 1.617604 -0.207846
v -1.292153 1.617604 -0.120000
v -1.260000 1.617604 -0.000000
v -1.292153 1.617604 0.120000
v -1.380000 1.617604 0.207846
v -1.500000 1.617604 0.240000
v -1.620000 1.617604 0.207846
v -1.707846 1.617604 0.120000
v -1.740000 1.617604 -0.000000
v -1.707846 1.617604 -0.120000
v -1.620000 1.617604 -0.207846
v -1.500000 1.617604 -0.240000
v -1.500000 -1.848804 -0.200000
v -1.600000 -1.848804 -0.173205
v -1.673205 -1.848804 -0.100000
v -1.700000 -1.848804 0.000000
v -1.673205 -1.848804 0.100000
v -1.600000 -1.848804 0.173205
v -1.500000 -1.848804 0.200000
v -1.399999 -1.848804 0.173205
v -1.326795 -1.848804 0.100000
v -1.299999 -1.848804 0.000000
v -1.326795 -1.848804 -0.100000
v -1.399999 -1.848804 -0.173205
v -1.600000 -1.615452 -0.173205
v -1.673205 -1.615452 -0.100000
v -1.326795 -1.615452 0.100000
v -1.299999 -1.615452 0.000000
v -1.600000 -1.615452 0.173205
v -1.500000 -1.615452 0.200000
v -1.700000 -1.615452 0.000000
v -1.326795 -1.615452 -0.100000
v -1.399999 -1.615452 0.173205
v -1.673205 -1.615452 0.100000
v -1.399999 -1.615452 -0.173205
v -1.500000 -1.615452 -0.200000
v -1.707846 -1.642905 -0.120000
v -1.260000 -1.642905 0.000000
v -1.500000 -1.642905 0.240000
v -1.740000 -1.642905 0.000000
v -1.292153 -1.642905 -0.120000
v -1.380000 -1.642905 0.207846
v -1.707846 -1.642905 0.120000
v -1.380000 -1.642905 -0.207846
v -1.620000 -1.642905 -0.207846
v -1.292153 -1.642905 0.120000
v -1.620000 -1.642905 0.207846
v -1.500000 -1.642905 -0.240000
v -1.380000 1.814493 -0.207846
v -1.292153 1.814493 -0.120000
v -1.260000 1.814493 -0.000000
v -1.292153 1.814493 0.120000
v -1.380000 1.814493 0.207846
v -1.500000 1.814493 0.240000
v -1.620000 1.814493 0.207846
v -1.707846 1.814493 0.120000
v -1.740000 1.814493 -0.000000
v -1.707846 1.814493 -0.120000
v -1.620000 1.814493 -0.207846
v -1.500000 1.814493 -0.240000
v -1.994073 1.966682 0.267277
v -1.897676 1.806241 0.267277
v -1.994073 1.966682 -0.267277
v -1.897676 1.806241 -0.267277
v -0.000000 1.966682 -0.267277
v -0.000000 1.966682 0.267277
v -0.000000 1.806241 0.267277
v -0.000000 1.806241 -0.267277
v -2.186867 2.131124 0.267277
v -2.090471 1.966682 0.267277
v -2.186867 2.131124 -0.267277
v -2.090471 1.966682 -0.267277
v -0.000000 2.131124 -0.267277
v -0.000000 2.131124 0.267277
v -0.000000 1.966682 0.267277
v -0.000000 1.966682 -0.267277
v 1.500000 -1.848804 -0.240000
v 1.620000 -1.848804 -0.207846
v 1.707847 -1.848804 -0.120000
v 1.740000 -1.848804 0.000000
v 1.707847 -1.848804 0.120000
v 1.620000 -1.848804 0.207846
v 1.500000 -1.848804 0.240000
v 1.380000 -1.848804 0.207846
v 1.292154 -1.848804 0.120000
v 1.260000 -1.848804 0.000000
v 1.292154 -1.848804 -0.120000
v 1.380000 -1.848804 -0.207846
v 1.500000 1.556174 -0.200000
v 1.600001 1.556174 -0.173205
v 1.673205 1.556174 -0.100000
v 1.700001 1.556174 -0.000000
v 1.673205 1.556174 0.100000
v 1.600001 1.556174 0.173205
v 1.500000 1.556174 0.200000
v 1.400000 1.556174 0.173205
v 1.326795 1.556174 0.100000
v 1.300000 1.556174 -0.000000
v 1.326795 1.556174 -0.100000
v 1.400000 1.556174 -0.173205
v 1.380000 1.617604 -0.207846
v 1.292154 1.617604 -0.120000
v 1.260000 1.617604 -0.000000
v 1.292154 1.617604 0.120000
v 1.380000 1.617604 0.207846
v 1.500000 1.617604 0.240000
v 1.620000 1.617604 0.207846
v 1.707847 1.617604 0.120000
v 1.740000 1.617604 -0.000000
v 1.707847 1.617604 -0.120000
v 1.620000 1.617604 -0.207846
v 1.500000 1.617604 -0.240000
v 1.500000 -1.848804 -0.200000
v 1.600001 -1.848804 -0.173205
v 1.673205 -1.848804 -0.100000
v 1.700001 -1.848804 0.000000
v 1.673205 -1.848804 0.100000
v 1.600001 -1.848804 0.173205
v 1.500000 -1.848804 0.200000
v 1.400000 -1.848804 0.173205
v 1.326795 -1.848804 0.100000
v 1.300000 -1.848804 0.000000
v 1.326795 -1.848804 -0.100000
v 1.400000 -1.848804 -0.173205
v 1.600001 -1.615452 -0.173205
v 1.673205 -1.615452 -0.100000
v 1.326795 -1.615452 0.100000
v 1.300000 -1.615452 0.000000
v 1.600001 -1.615452 0.173205
v 1.500000 -1.615452 0.200000
v 1.700001 -1.615452 0.000000
v 1.326795 -1.615452 -0.100000
v 1.400000 -1.615452 0.173205
v 1.673205 -1.615452 0.100000
v 1.400000 -1.615452 -0.173205
v 1.500000 -1.615452 -0.200000
v 1.707847 -1.642905 -0.120000
v 1.260000 -1.642905 0.000000
v 1.500000 -1.642905 0.240000
v 1.740000 -1.642905 0.000000
v 1.292154 -1.642905 -0.120000
v 1.380000 -1.642905 0.207846
v 1.707847 -1.642905 0.120000
v 1.380000 -1.642905 -0.207846
v 1.620000 -1.642905 -0.207846
v 1.292154 -1.642905 0.120000
v 1.620000 -1.642905 0.207846
v 1.500000 -1.642905 -0.240000
v 1.380000 1.814493 -0.207846
v 1.292154 1.814493 -0.120000
v 1.260000 1.814493 -0.000000
v 1.292154 1.814493 0.120000
v 1.380000 1.814493 0.207846
v 1.500000 1.814493 0.240000
v 1.620000 1.814493 0.207846
v 1.707847 1.814493 0.120000
v 1.740000 1.814493 -0.000000
v 1.707847 1.814493 -0.120000
v 1.620000 1.814493 -0.207846
v 1.500000 1.814493 -0.240000
v 1.994074 1.966682 0.267277
v 1.897676 1.806241 0.267277
v 1.994074 1.966682 -0.267277
v 1.897676 1.806241 -0.267277
v 2.186867 2.131124 0.267277
v 2.090471 1.966682 0.267277
v 2.186867 2.131124 -0.267277
v 2.090471 1.966682 -0.267277
vn -0.8266 -0.2983 -0.4772
vn -0.4328 0.5008 -0.7496
vn -0.7496 0.5008 -0.4328
vn 0.9545 -0.2983 -0.0000
vn 0.7496 0.5008 0.4328
vn 0.8656 0.5007 -0.0000
vn -0.0000 -0.2983 0.9545
vn -0.4328 0.5008 0.7496
vn -0.0000 0.5008 0.8656
vn -0.9545 -0.2983 -0.0000
vn -0.8656 0.5008 -0.0000
vn 0.8266 -0.2983 -0.4772
vn 0.7496 0.5008 -0.4328
vn 0.4772 -0.2983 0.8266
vn 0.4328 0.5008 0.7496
vn -0.8266 -0.2983 0.4772
vn -0.7496 0.5008 0.4328
vn 0.4328 0.5008 -0.7496
vn -0.4772 -0.2983 -0.8266
vn -0.0000 0.5007 -0.8656
vn 0.8266 -0.2983 0.4772
vn -0.4772 -0.2983 0.8266
vn 0.4772 -0.2983 -0.8266
vn 0.4498 0.4368 -0.7790
vn -0.0000 0.4368 -0.8995
vn -0.7790 0.4368 0.4498
vn -0.4498 0.4368 0.7790
vn 0.4498 0.4368 0.7790
vn 0.7790 0.4368 0.4498
vn -0.4498 0.4368 -0.7790
vn 0.7790 0.4368 -0.4498
vn -0.8995 0.4368 -0.0000
vn -0.0000 0.4368 0.8995
vn 0.8995 0.4368 -0.0000
vn -0.7790 0.4368 -0.4498
vn -0.5000 -0.0000 -0.8660
vn -0.8660 -0.0000 -0.5000
vn 0.8660 -0.0000 0.5000
vn 1.0000 -0.0000 -0.0000
vn -0.5000 -0.0000 0.8660
vn -0.0000 -0.0000 1.0000
vn -1.0000 -0.0000 -0.0000
vn 0.8660 -0.0000 -0.5000
vn 0.5000 -0.0000 0.8660
vn -0.8660 -0.0000 0.5000
vn 0.5000 -0.0000 -0.8660
vn -0.0000 -0.0000 -1.0000
vn 0.8332 -0.2726 0.4811
vn 0.4811 -0.2726 0.8332
vn -0.4811 -0.2726 0.8332
vn -0.8332 -0.2726 0.4811
vn -0.0000 -0.2726 -0.9621
vn 0.4811 -0.2726 -0.8332
vn 0.8332 -0.2726 -0.4811
vn -0.8332 -0.2726 -0.4811
vn -0.4811 -0.2726 -0.8332
vn -0.9621 -0.2726 -0.0000
vn 0.9621 -0.2726 -0.0000
vn -0.0000 -0.2726 0.9621
vn -0.0000 -0.2983 -0.9545
vn -0.8572 -0.5150 -0.0000
vn -0.0000 -1.0000 -0.0000
vn -0.0000 1.0000 -0.0000
vn -0.8627 -0.5057 -0.0000
vn 0.4328 0.5007 0.7496
vn -0.0000 0.5008 -0.8656
vn 0.8572 -0.5150 -0.0000
vn 0.8627 -0.5057 -0.0000
vt 0.000000 0.000000
vt 0.000000 1.000000
vt 1.000000 0.000000
vt 1.000000 1.000000
s 1
usemtl Gate
f 15/1/1 49/1/2 50/1/3
f 22/1/4 51/1/5 52/1/6
f 19/1/7 53/1/8 54/1/9
f 16/1/10 50/1/3 55/1/11
f 23/1/12 52/1/6 56/1/13
f 20/1/14 54/1/9 57/1/15
f 17/1/16 55/1/11 58/1/17
f 59/1/18 23/1/12 56/1/13
f 14/1/19 60/1/20 49/1/2
f 21/1/21 57/1/15 51/1/5
f 18/1/22 58/1/17 53/1/8
f 60/1/20 24/1/23 59/1/18
f 60/1/20 68/1/24 72/1/25
f 53/1/8 67/1/26 71/1/27
f 51/1/5 66/1/28 70/1/29
f 69/1/30 60/1/20 72/1/25
f 68/1/24 56/1/13 65/1/31
f 67/1/26 55/1/11 64/1/32
f 57/1/15 63/1/33 66/1/28
f 65/1/31 52/1/6 62/1/34
f 55/1/11 61/1/35 64/1/32
f 63/1/33 53/1/8 71/1/27
f 52/1/6 70/1/29 62/1/34
f 61/1/35 49/1/2 69/1/30
f 61/1/35 2/1/36 3/1/37
f 62/1/34 9/1/38 10/1/39
f 63/1/33 6/1/40 7/1/41
f 64/1/32 3/1/37 4/1/42
f 65/1/31 10/1/39 11/1/43
f 66/1/28 7/1/41 8/1/44
f 67/1/26 4/1/42 5/1/45
f 68/1/24 11/1/43 12/1/46
f 69/1/30 1/1/47 2/1/36
f 70/1/29 8/1/44 9/1/38
f 71/1/27 5/1/45 6/1/40
f 72/1/25 12/1/46 1/1/47
f 28/1/48 77/1/44 29/1/49
f 31/1/50 80/1/45 32/1/51
f 36/1/52 73/1/46 25/1/53
f 25/1/53 74/1/43 26/1/54
f 34/1/55 83/1/36 35/1/56
f 33/1/57 82/1/37 34/1/55
f 32/1/51 81/1/42 33/1/57
f 27/1/58 76/1/38 28/1/48
f 35/1/56 84/1/47 36/1/52
f 26/1/54 75/1/39 27/1/58
f 29/1/49 78/1/41 30/1/59
f 30/1/59 79/1/40 31/1/50
f 19/1/7 29/1/49 30/1/59
f 21/1/21 29/1/49 20/1/14
f 22/1/4 28/1/48 21/1/21
f 22/1/4 26/1/54 27/1/58
f 24/1/23 26/1/54 23/1/12
f 13/1/60 25/1/53 24/1/23
f 13/1/60 35/1/56 36/1/52
f 14/1/19 34/1/55 35/1/56
f 15/1/1 33/1/57 34/1/55
f 16/1/10 32/1/51 33/1/57
f 19/1/7 31/1/50 18/1/22
f 18/1/22 32/1/51 17/1/16
s 0
f 87/2/61 86/3/61 85/1/61
f 91/3/39 89/2/39 90/1/39
f 88/4/62 91/3/62 86/3/62
f 85/1/63 89/2/63 87/2/63
f 88/4/47 89/2/47 92/4/47
f 86/3/41 90/1/41 85/1/41
f 95/2/64 94/3/64 93/1/64
f 99/3/39 97/2/39 98/1/39
f 96/4/62 99/3/62 94/3/62
f 93/1/63 97/2/63 95/2/63
f 96/4/47 97/2/47 100/4/47
f 94/3/41 98/1/41 93/1/41
s 1
f 149/1/18 115/1/12 150/1/13
f 151/1/17 122/1/10 152/1/11
f 153/1/65 119/1/7 154/1/9
f 150/1/13 116/1/4 155/1/6
f 152/1/11 123/1/1 156/1/3
f 154/1/9 120/1/22 157/1/8
f 155/1/6 117/1/21 158/1/5
f 156/1/3 124/1/19 159/1/2
f 160/1/66 114/1/23 149/1/18
f 157/1/8 121/1/16 151/1/17
f 158/1/5 118/1/14 153/1/65
f 159/1/2 113/1/60 160/1/66
f 168/1/30 160/1/66 172/1/25
f 167/1/29 153/1/65 171/1/28
f 170/1/26 157/1/8 151/1/17
f 169/1/24 160/1/66 149/1/18
f 168/1/30 156/1/3 159/1/2
f 167/1/29 155/1/6 158/1/5
f 163/1/33 157/1/8 166/1/27
f 165/1/35 152/1/11 156/1/3
f 161/1/31 155/1/6 164/1/34
f 163/1/33 153/1/65 154/1/9
f 170/1/26 152/1/11 162/1/32
f 169/1/24 150/1/13 161/1/31
f 102/1/46 161/1/31 103/1/43
f 109/1/45 162/1/32 110/1/42
f 106/1/44 163/1/33 107/1/41
f 103/1/43 164/1/34 104/1/39
f 110/1/42 165/1/35 111/1/37
f 107/1/41 166/1/27 108/1/40
f 104/1/39 167/1/29 105/1/38
f 111/1/37 168/1/30 112/1/36
f 101/1/47 169/1/24 102/1/46
f 108/1/40 170/1/26 109/1/45
f 105/1/38 171/1/28 106/1/44
f 112/1/36 172/1/25 101/1/47
f 177/1/40 128/1/51 129/1/50
f 180/1/38 131/1/49 132/1/48
f 173/1/36 136/1/52 125/1/56
f 174/1/37 125/1/56 126/1/55
f 183/1/46 134/1/54 135/1/53
f 182/1/43 133/1/58 134/1/54
f 181/1/39 132/1/48 133/1/58
f 176/1/45 127/1/57 128/1/51
f 184/1/47 135/1/53 136/1/52
f 175/1/42 126/1/55 127/1/57
f 178/1/41 129/1/50 130/1/59
f 179/1/44 130/1/59 131/1/49
f 119/1/7 129/1/50 120/1/22
f 129/1/50 121/1/16 120/1/22
f 128/1/51 122/1/10 121/1/16
f 127/1/57 123/1/1 122/1/10
f 123/1/1 125/1/56 124/1/19
f 125/1/56 113/1/60 124/1/19
f 113/1/60 135/1/53 114/1/23
f 114/1/23 134/1/54 115/1/12
f 134/1/54 116/1/4 115/1/12
f 116/1/4 132/1/48 117/1/21
f 131/1/49 119/1/7 118/1/14
f 132/1/48 118/1/14 117/1/21
s 0
f 186/3/67 187/2/67 185/1/67
f 91/3/62 188/4/62 186/3/62
f 89/2/63 185/1/63 187/2/63
f 188/4/47 89/2/47 187/2/47
f 90/1/41 186/3/41 185/1/41
f 190/3/68 191/2/68 189/1/68
f 99/3/62 192/4/62 190/3/62
f 97/2/63 189/1/63 191/2/63
f 192/4/47 97/2/47 191/2/47
f 98/1/41 190/3/41 189/1/41
s 1
f 15/1/1 14/1/19 49/1/2
f 22/1/4 21/1/21 51/1/5
f 19/1/7 18/1/22 53/1/8
f 16/1/10 15/1/1 50/1/3
f 23/1/12 22/1/4 52/1/6
f 20/1/14 19/1/7 54/1/9
f 17/1/16 16/1/10 55/1/11
f 59/1/18 24/1/23 23/1/12
f 14/1/19 13/1/60 60/1/20
f 21/1/21 20/1/14 57/1/15
f 18/1/22 17/1/16 58/1/17
f 60/1/20 13/1/60 24/1/23
f 60/1/20 59/1/18 68/1/24
f 53/1/8 58/1/17 67/1/26
f 51/1/5 57/1/15 66/1/28
f 69/1/30 49/1/2 60/1/20
f 68/1/24 59/1/18 56/1/13
f 67/1/26 58/1/17 55/1/11
f 57/1/15 54/1/9 63/1/33
f 65/1/31 56/1/13 52/1/6
f 55/1/11 50/1/3 61/1/35
f 63/1/33 54/1/9 53/1/8
f 52/1/6 51/1/5 70/1/29
f 61/1/35 50/1/3 49/1/2
f 61/1/35 69/1/30 2/1/36
f 62/1/34 70/1/29 9/1/38
f 63/1/33 71/1/27 6/1/40
f 64/1/32 61/1/35 3/1/37
f 65/1/31 62/1/34 10/1/39
f 66/1/28 63/1/33 7/1/41
f 67/1/26 64/1/32 4/1/42
f 68/1/24 65/1/31 11/1/43
f 69/1/30 72/1/25 1/1/47
f 70/1/29 66/1/28 8/1/44
f 71/1/27 67/1/26 5/1/45
f 72/1/25 68/1/24 12/1/46
f 28/1/48 76/1/38 77/1/44
f 31/1/50 79/1/40 80/1/45
f 36/1/52 84/1/47 73/1/46
f 25/1/53 73/1/46 74/1/43
f 34/1/55 82/1/37 83/1/36
f 33/1/57 81/1/42 82/1/37
f 32/1/51 80/1/45 81/1/42
f 27/1/58 75/1/39 76/1/38
f 35/1/56 83/1/36 84/1/47
f 26/1/54 74/1/43 75/1/39
f 29/1/49 77/1/44 78/1/41
f 30/1/59 78/1/41 79/1/40
f 19/1/7 20/1/14 29/1/49
f 21/1/21 28/1/48 29/1/49
f 22/1/4 27/1/58 28/1/48
f 22/1/4 23/1/12 26/1/54
f 24/1/23 25/1/53 26/1/54
f 13/1/60 36/1/52 25/1/53
f 13/1/60 14/1/19 35/1/56
f 14/1/19 15/1/1 34/1/55
f 15/1/1 16/1/10 33/1/57
f 16/1/10 17/1/16 32/1/51
f 19/1/7 30/1/59 31/1/50
f 18/1/22 31/1/50 32/1/51
s 0
f 87/2/61 88/4/61 86/3/61
f 91/3/39 92/4/39 89/2/39
f 88/4/62 92/4/62 91/3/62
f 85/1/63 90/1/63 89/2/63
f 88/4/47 87/2/47 89/2/47
f 86/3/41 91/3/41 90/1/41
f 95/2/64 96/4/64 94/3/64
f 99/3/39 100/4/39 97/2/39
f 96/4/62 100/4/62 99/3/62
f 93/1/63 98/1/63 97/2/63
f 96/4/47 95/2/47 97/2/47
f 94/3/41 99/3/41 98/1/41
s 1
f 149/1/18 114/1/23 115/1/12
f 151/1/17 121/1/16 122/1/10
f 153/1/65 118/1/14 119/1/7
f 150/1/13 115/1/12 116/1/4
f 152/1/11 122/1/10 123/1/1
f 154/1/9 119/1/7 120/1/22
f 155/1/6 116/1/4 117/1/21
f 156/1/3 123/1/1 124/1/19
f 160/1/66 113/1/60 114/1/23
f 157/1/8 120/1/22 121/1/16
f 158/1/5 117/1/21 118/1/14
f 159/1/2 124/1/19 113/1/60
f 168/1/30 159/1/2 160/1/66
f 167/1/29 158/1/5 153/1/65
f 170/1/26 166/1/27 157/1/8
f 169/1/24 172/1/25 160/1/66
f 168/1/30 165/1/35 156/1/3
f 167/1/29 164/1/34 155/1/6
f 163/1/33 154/1/9 157/1/8
f 165/1/35 162/1/32 152/1/11
f 161/1/31 150/1/13 155/1/6
f 163/1/33 171/1/28 153/1/65
f 170/1/26 151/1/17 152/1/11
f 169/1/24 149/1/18 150/1/13
f 102/1/46 169/1/24 161/1/31
f 109/1/45 170/1/26 162/1/32
f 106/1/44 171/1/28 163/1/33
f 103/1/43 161/1/31 164/1/34
f 110/1/42 162/1/32 165/1/35
f 107/1/41 163/1/33 166/1/27
f 104/1/39 164/1/34 167/1/29
f 111/1/37 165/1/35 168/1/30
f 101/1/47 172/1/25 169/1/24
f 108/1/40 166/1/27 170/1/26
f 105/1/38 167/1/29 171/1/28
f 112/1/36 168/1/30 172/1/25
f 177/1/40 176/1/45 128/1/51
f 180/1/38 179/1/44 131/1/49
f 173/1/36 184/1/47 136/1/52
f 174/1/37 173/1/36 125/1/56
f 183/1/46 182/1/43 134/1/54
f 182/1/43 181/1/39 133/1/58
f 181/1/39 180/1/38 132/1/48
f 176/1/45 175/1/42 127/1/57
f 184/1/47 183/1/46 135/1/53
f 175/1/42 174/1/37 126/1/55
f 178/1/41 177/1/40 129/1/50
f 179/1/44 178/1/41 130/1/59
f 119/1/7 130/1/59 129/1/50
f 129/1/50 128/1/51 121/1/16
f 128/1/51 127/1/57 122/1/10
f 127/1/57 126/1/55 123/1/1
f 123/1/1 126/1/55 125/1/56
f 125/1/56 136/1/52 113/1/60
f 113/1/60 136/1/52 135/1/53
f 114/1/23 135/1/53 134/1/54
f 134/1/54 133/1/58 116/1/4
f 116/1/4 133/1/58 132/1/48
f 131/1/49 130/1/59 119/1/7
f 132/1/48 131/1/49 118/1/14
s 0
f 186/3/67 188/4/67 187/2/67
f 91/3/62 92/4/62 188/4/62
f 89/2/63 90/1/63 185/1/63
f 188/4/47 92/4/47 89/2/47
f 90/1/41 91/3/41 186/3/41
f 190/3/68 192/4/68 191/2/68
f 99/3/62 100/4/62 192/4/62
f 97/2/63 98/1/63 189/1/63
f 192/4/47 100/4/47 97/2/47
f 98/1/41 99/3/41 190/3/41
l 37 38
l 38 39
l 39 40
l 40 41
l 41 42
l 42 43
l 43 44
l 44 45
l 45 46
l 46 47
l 47 48
l 37 48
l 137 138
l 138 139
l 139 140
l 140 141
l 141 142
l 142 143
l 143 144
l 144 145
l 145 146
l 146 147
l 147 148
l 137 148
