# Blender 4.3.2
# www.blender.org
o Plane
v -17.928207 -1.081351 17.956993
v 17.956551 -1.081351 17.956993
v -17.928207 -1.081351 -17.927765
v 17.956551 -1.081351 -17.927765
v -9.371071 -0.011609 14.884600
v -2.511837 -0.011609 14.884600
v -9.371071 -0.011609 12.884600
v -2.511837 -0.011609 12.884600
v -9.371071 0.492440 12.884600
v -9.371071 0.492440 14.884600
v -2.511837 1.544486 14.884600
v -2.511837 1.544486 12.884600
v -0.283303 -0.011609 15.014433
v -1.660911 -0.011609 12.754768
v -0.283303 1.544486 15.014433
v -1.660911 1.544486 12.754768
v 1.017697 -0.011609 14.221275
v -0.359911 -0.011609 11.961611
v 1.017697 1.544486 14.221275
v -0.359911 1.544486 11.961611
v 7.101613 -0.011609 9.639346
v 4.980425 -0.011609 8.056801
v 7.101613 2.050297 9.639346
v 4.980425 2.050297 8.056801
v 12.341468 -0.011609 2.966727
v 10.220280 -0.011609 1.384182
v 12.341468 2.050297 2.966727
v 10.220280 2.050297 1.384182
v 7.964354 -0.011609 8.482960
v 9.710637 -0.011609 6.502779
v 11.113545 -0.011609 4.672462
v 11.113545 1.685648 4.672462
v 9.710637 1.685648 6.502779
v 7.964354 2.050297 8.482960
v 8.992357 1.685648 3.089917
v 7.589448 1.685648 4.920234
v 5.843165 2.050297 6.900414
v 8.992357 -0.011609 3.089917
v 7.589448 -0.011609 4.920234
v 5.843165 -0.011609 6.900414
v 13.234049 -0.011609 0.773829
v 12.763721 -0.011609 -0.566604
v 13.234049 2.050297 0.773829
v 12.763721 2.050297 -0.566604
v 11.870100 -0.011609 -1.436709
v 11.870100 2.050297 -1.436709
v 10.506151 -0.011609 -2.118683
v 10.506151 2.050297 -2.118683
v 9.283300 -0.011609 -1.907036
v 9.283300 2.050297 -1.907036
v 8.338258 -0.011609 2.163396
v 8.338258 2.050297 2.163396
v 6.556116 -0.011609 -0.757909
v 6.556116 2.050297 -0.757909
v 6.409916 -0.011609 3.527345
v 6.409916 2.606399 3.527345
v 4.627775 -0.011609 0.606040
v 4.627775 2.606399 0.606040
v 1.544093 -0.011609 6.674284
v 1.544093 3.335412 6.674284
v -0.177833 -0.011609 3.717086
v -0.177833 3.335412 3.717086
v -3.529856 -0.011609 6.807413
v -3.529856 3.335412 6.807413
v -2.174595 -0.011609 3.665230
v -2.174595 3.335412 3.665230
v -7.430668 -0.011609 4.216101
v -7.430668 3.335412 4.216101
v -4.613040 -0.011609 2.274188
v -4.613040 3.335412 2.274188
v -8.544460 -0.011609 1.029584
v -8.544460 3.335412 1.029584
v -5.124700 -0.011609 1.153261
v -5.124700 3.335412 1.153261
v -8.757549 -0.011609 -4.394853
v -8.757549 2.583148 -4.394853
v -5.337789 -0.011609 -4.271176
v -5.337789 2.583148 -4.271176
v -7.255197 -0.011609 -9.176222
v -7.255197 2.164349 -9.176222
v -4.368627 -0.011609 -7.338350
v -4.368627 2.164349 -7.338350
v -4.941187 -0.011609 -12.252161
v -4.941187 1.440786 -12.252161
v -2.054618 -0.011609 -10.414289
v -2.054618 1.440786 -10.414289
v 0.768147 -0.011609 -16.059166
v -17.928207 -0.017531 -17.927765
v 2.623088 -0.011609 -13.183537
v -17.928207 -0.017531 17.956993
v 17.956551 -0.017531 17.956993
v 17.956551 -0.017531 -17.927765
vn -0.0000 -1.0000 -0.0000
vn -0.1516 0.9884 -0.0000
vn -0.0582 -0.0000 0.9983
vn -1.0000 -0.0000 -0.0000
vn -0.0000 -0.0000 -1.0000
vn -0.0000 -0.0000 1.0000
vn -0.5205 -0.0000 -0.8538
vn -0.1508 -0.0000 -0.9886
vn -0.0000 1.0000 -0.0000
vn -0.5902 -0.0000 -0.8072
vn 0.5205 -0.0000 0.8538
vn 0.8116 -0.0000 0.5842
vn 0.6016 -0.0000 0.7988
vn -0.0653 0.9971 0.0398
vn 0.9436 -0.0000 -0.3311
vn -0.1022 0.9853 0.1370
vn -0.8116 -0.0000 -0.5842
vn -0.8015 -0.0000 -0.5980
vn -0.7500 -0.0000 -0.6614
vn -0.7937 -0.0000 -0.6083
vn 0.0821 0.9905 -0.1100
vn 0.8015 -0.0000 0.5980
vn 0.7500 -0.0000 0.6614
vn 0.7937 -0.0000 0.6083
vn 0.9262 -0.0000 0.3770
vn 0.6976 -0.0000 -0.7165
vn 0.4472 -0.0000 -0.8944
vn -0.1705 -0.0000 -0.9854
vn 0.3825 -0.0000 0.9239
vn -0.3883 -0.0000 -0.9215
vn -0.5775 -0.0000 -0.8164
vn 0.5775 -0.0000 0.8164
vn 0.1961 0.9733 -0.1196
vn 0.5431 -0.0000 0.8397
vn 0.1080 0.9922 -0.0629
vn -0.5434 -0.0000 -0.8394
vn 0.0260 -0.0000 -0.9997
vn 0.0262 -0.0000 0.9997
vn -0.5533 -0.0000 0.8330
vn 0.4955 -0.0000 -0.8686
vn -0.9440 -0.0000 0.3300
vn 0.9097 -0.0000 -0.4152
vn 0.0050 0.9905 -0.1376
vn 0.9992 -0.0000 -0.0393
vn -0.9992 -0.0000 0.0393
vn -0.9540 -0.0000 -0.2998
vn 0.0031 0.9963 -0.0863
vn 0.9535 -0.0000 0.3013
vn -0.7991 -0.0000 -0.6012
vn 0.0995 0.9827 -0.1563
vn 0.7991 -0.0000 0.6012
vn 0.1211 0.9743 -0.1901
vn 0.5094 -0.0000 0.8605
vn -0.5548 -0.0000 -0.8320
vn 1.0000 -0.0000 -0.0000
vn -0.0413 0.9976 0.0553
vn 0.1079 0.9920 -0.0658
vn 0.0717 0.9910 -0.1127
vn 0.2171 0.9661 -0.1400
vt 0.000000 1.000000
vt 1.000000 0.000000
vt 0.000000 0.000000
vt 1.000000 1.000000
s 0
f 3/1/1 2/2/1 1/3/1
f 7/1/1 6/2/1 5/3/1
f 11/2/2 9/1/2 10/3/2
f 6/2/3 15/2/3 11/2/3
f 5/3/4 9/1/4 7/1/4
f 8/4/5 9/1/5 12/4/5
f 6/2/6 10/3/6 5/3/6
f 16/4/7 18/4/7 14/4/7
f 12/4/8 14/4/8 8/4/8
f 11/2/9 16/4/9 12/4/9
f 6/2/1 14/4/1 13/2/1
f 20/4/10 22/4/10 18/4/10
f 14/4/1 17/2/1 13/2/1
f 13/2/11 19/2/11 15/2/11
f 16/4/9 19/2/9 20/4/9
f 32/2/12 25/2/12 27/2/12
f 17/2/1 22/4/1 21/2/1
f 19/2/13 21/2/13 23/2/13
f 19/2/14 24/4/14 20/4/14
f 42/2/15 43/2/15 41/2/15
f 35/4/16 27/2/16 28/4/16
f 35/4/17 26/4/17 38/4/17
f 38/4/1 25/2/1 31/2/1
f 22/4/1 29/2/1 21/2/1
f 29/2/1 39/4/1 30/2/1
f 30/2/1 38/4/1 31/2/1
f 24/4/18 40/4/18 22/4/18
f 40/4/19 36/4/19 39/4/19
f 36/4/20 38/4/20 39/4/20
f 23/2/9 37/4/9 24/4/9
f 34/2/21 36/4/21 37/4/21
f 33/2/9 35/4/9 36/4/9
f 21/2/22 34/2/22 23/2/22
f 29/2/23 33/2/23 34/2/23
f 30/2/24 32/2/24 33/2/24
f 25/2/1 26/4/1 41/2/1
f 25/2/25 43/2/25 27/2/25
f 28/4/9 27/2/9 43/2/9
f 45/2/26 44/2/26 42/2/26
f 47/2/27 46/2/27 45/2/27
f 49/2/28 48/2/28 47/2/28
f 28/4/9 43/2/9 44/2/9
f 44/2/9 46/2/9 28/4/9
f 46/2/9 48/2/9 28/4/9
f 48/2/9 50/2/9 28/4/9
f 42/2/1 41/2/1 26/4/1
f 45/2/1 42/2/1 26/4/1
f 47/2/1 45/2/1 26/4/1
f 49/2/1 47/2/1 26/4/1
f 50/2/9 52/4/9 28/4/9
f 28/4/29 51/4/29 26/4/29
f 49/2/30 54/2/30 50/2/30
f 49/2/1 51/4/1 53/2/1
f 54/2/31 57/2/31 58/2/31
f 51/4/1 57/2/1 53/2/1
f 52/4/32 55/4/32 51/4/32
f 52/4/33 58/2/33 56/4/33
f 55/4/1 61/2/1 57/2/1
f 56/4/34 59/4/34 55/4/34
f 56/4/35 62/2/35 60/4/35
f 58/2/36 61/2/36 62/2/36
f 62/2/9 64/4/9 60/4/9
f 61/2/37 66/2/37 62/2/37
f 61/2/1 63/4/1 65/2/1
f 60/4/38 63/4/38 59/4/38
f 63/4/1 69/2/1 65/2/1
f 64/4/39 67/4/39 63/4/39
f 64/4/9 70/2/9 68/4/9
f 65/2/40 70/2/40 66/2/40
f 67/4/1 73/2/1 69/2/1
f 68/4/41 71/4/41 67/4/41
f 68/4/9 74/2/9 72/4/9
f 69/2/42 74/2/42 70/2/42
f 72/4/43 78/2/43 76/4/43
f 73/2/44 78/2/44 74/2/44
f 71/4/1 77/2/1 73/2/1
f 71/4/45 76/4/45 75/4/45
f 77/2/1 79/4/1 81/2/1
f 75/4/46 80/4/46 79/4/46
f 78/2/47 80/4/47 76/4/47
f 77/2/48 82/2/48 78/2/48
f 79/4/49 84/4/49 83/4/49
f 82/2/50 84/4/50 80/4/50
f 81/2/51 86/2/51 82/2/51
f 81/2/1 83/4/1 85/2/1
f 86/2/52 87/4/52 84/4/52
f 86/2/53 85/2/53 89/2/53
f 85/2/1 87/4/1 89/2/1
f 83/4/54 84/4/54 87/4/54
f 91/2/9 88/1/9 90/3/9
f 2/2/6 90/3/6 1/3/6
f 4/4/55 91/2/55 2/2/55
f 1/3/4 88/1/4 3/1/4
f 3/1/5 92/4/5 4/4/5
f 3/1/1 4/4/1 2/2/1
f 7/1/1 8/4/1 6/2/1
f 11/2/2 12/4/2 9/1/2
f 6/2/3 13/2/3 15/2/3
f 5/3/4 10/3/4 9/1/4
f 8/4/5 7/1/5 9/1/5
f 6/2/6 11/2/6 10/3/6
f 16/4/7 20/4/7 18/4/7
f 12/4/8 16/4/8 14/4/8
f 11/2/9 15/2/9 16/4/9
f 6/2/1 8/4/1 14/4/1
f 20/4/10 24/4/10 22/4/10
f 14/4/1 18/4/1 17/2/1
f 13/2/11 17/2/11 19/2/11
f 16/4/9 15/2/9 19/2/9
f 32/2/12 31/2/12 25/2/12
f 17/2/1 18/4/1 22/4/1
f 19/2/13 17/2/13 21/2/13
f 19/2/56 23/2/56 24/4/56
f 42/2/15 44/2/15 43/2/15
f 35/4/16 32/2/16 27/2/16
f 35/4/17 28/4/17 26/4/17
f 38/4/1 26/4/1 25/2/1
f 22/4/1 40/4/1 29/2/1
f 29/2/1 40/4/1 39/4/1
f 30/2/1 39/4/1 38/4/1
f 24/4/18 37/4/18 40/4/18
f 40/4/19 37/4/19 36/4/19
f 36/4/20 35/4/20 38/4/20
f 23/2/9 34/2/9 37/4/9
f 34/2/21 33/2/21 36/4/21
f 33/2/9 32/2/9 35/4/9
f 21/2/22 29/2/22 34/2/22
f 29/2/23 30/2/23 33/2/23
f 30/2/24 31/2/24 32/2/24
f 25/2/25 41/2/25 43/2/25
f 45/2/26 46/2/26 44/2/26
f 47/2/27 48/2/27 46/2/27
f 49/2/28 50/2/28 48/2/28
f 50/2/9 54/2/9 52/4/9
f 28/4/29 52/4/29 51/4/29
f 49/2/30 53/2/30 54/2/30
f 49/2/1 26/4/1 51/4/1
f 54/2/31 53/2/31 57/2/31
f 51/4/1 55/4/1 57/2/1
f 52/4/32 56/4/32 55/4/32
f 52/4/33 54/2/33 58/2/33
f 55/4/1 59/4/1 61/2/1
f 56/4/34 60/4/34 59/4/34
f 56/4/57 58/2/57 62/2/57
f 58/2/36 57/2/36 61/2/36
f 62/2/9 66/2/9 64/4/9
f 61/2/37 65/2/37 66/2/37
f 61/2/1 59/4/1 63/4/1
f 60/4/38 64/4/38 63/4/38
f 63/4/1 67/4/1 69/2/1
f 64/4/39 68/4/39 67/4/39
f 64/4/9 66/2/9 70/2/9
f 65/2/40 69/2/40 70/2/40
f 67/4/1 71/4/1 73/2/1
f 68/4/41 72/4/41 71/4/41
f 68/4/9 70/2/9 74/2/9
f 69/2/42 73/2/42 74/2/42
f 72/4/43 74/2/43 78/2/43
f 73/2/44 77/2/44 78/2/44
f 71/4/1 75/4/1 77/2/1
f 71/4/45 72/4/45 76/4/45
f 77/2/1 75/4/1 79/4/1
f 75/4/46 76/4/46 80/4/46
f 78/2/58 82/2/58 80/4/58
f 77/2/48 81/2/48 82/2/48
f 79/4/49 80/4/49 84/4/49
f 82/2/50 86/2/50 84/4/50
f 81/2/51 85/2/51 86/2/51
f 81/2/1 79/4/1 83/4/1
f 86/2/59 89/2/59 87/4/59
f 85/2/1 83/4/1 87/4/1
f 91/2/9 92/4/9 88/1/9
f 2/2/6 91/2/6 90/3/6
f 4/4/55 92/4/55 91/2/55
f 1/3/4 90/3/4 88/1/4
f 3/1/5 88/1/5 92/4/5
